<svg width="141" height="137" viewBox="0 0 141 137" fill="none" xmlns="http://www.w3.org/2000/svg">
<g clip-path="url(#clip0_5_5)">
<rect width="141" height="137" fill="white"/>
<path d="M64.8351 2.37077C62.5413 2.62122 60.1201 2.9969 59.4193 3.12212C52.0283 4.62486 45.3381 6.69112 41.1329 8.69476C21.7634 17.8364 7.10879 36.5579 3.28586 57.0953C1.37439 67.3639 1.56554 74.3767 4.05044 84.8332C10.1034 110.442 30.3013 129.915 56.5521 135.488C63.0511 136.865 77.7693 136.991 83.6312 135.738C111.475 129.915 132.119 109.628 138.235 82.1408C138.745 79.8867 139 74.5645 139 68.6788C138.936 60.2886 138.681 58.0971 137.216 52.7123C132.565 35.4309 120.968 20.2783 105.804 11.5124C96.7566 6.37805 89.2381 3.93611 76.941 2.37077C71.6526 1.68201 70.7606 1.68201 64.8351 2.37077ZM80.1268 4.49963C99.3689 7.31725 116.445 18.1494 126.83 33.9281C134.476 45.6369 137.152 55.0916 137.089 69.9311C137.025 80.7633 136.005 87.0873 133.393 92.7851C132.501 94.6636 131.736 96.4794 131.736 96.6672C131.736 97.2307 126.575 105.871 126.002 106.247C125.747 106.435 125.046 107.499 124.473 108.564C123.199 111.068 122.243 111.131 120.268 109.065C119.439 108.188 116.19 105.433 113.131 102.929C106.505 97.669 103.001 92.9104 101.217 86.9621C98.4132 77.5074 98.7955 74.3141 104.339 60.539C108.353 50.3956 109.245 45.3865 108.225 38.2485C107.015 29.6704 104.53 24.6613 100.325 22.0315C99.1778 21.3428 96.8203 19.3391 95.1 17.6485C88.2187 10.761 77.3233 9.94703 55.4052 14.6431C50.2442 15.7075 50.0531 15.7075 49.2248 14.6431C47.7593 12.6394 44.0638 13.8917 39.8586 17.8364C33.4233 23.8473 32.7224 29.9835 37.8834 34.1786L40.2409 36.1196L39.094 40.9409C37.2463 48.8928 37.1188 51.2096 38.648 54.0272C39.4126 55.3421 39.986 56.7196 39.986 57.0953C39.986 57.4709 38.5843 60.4764 36.864 63.7323C35.0799 66.9882 33.7419 70.2442 33.8693 70.8703C33.933 71.559 34.9525 72.5609 36.0994 73.0618C38.0746 73.9384 38.1383 74.1262 37.8197 76.6308C37.5648 78.384 37.756 79.5736 38.3294 80.0745C39.6037 81.3268 40.1772 87.5256 39.3489 90.5937C38.8391 92.4721 38.8391 93.7244 39.3489 95.2897C41.1329 100.612 47.4407 100.8 60.6936 95.9158C61.713 95.4775 61.8405 95.5402 61.2033 96.2915C59.483 98.0447 60.2476 102.991 62.9873 108.313C65.536 113.322 65.5997 113.51 65.3448 118.77C65.1537 122.464 64.7714 124.593 63.9431 125.783C63.2422 126.784 63.1148 127.536 63.4971 127.786C64.4528 128.412 69.7412 121.149 72.2261 115.827C74.9021 110.317 77.3871 103.054 80.7003 91.0946C83.6312 80.7007 83.6949 80.5128 82.4206 80.9511C81.9109 81.139 81.0188 83.1426 80.4454 85.4593C76.8136 99.6101 74.5199 107.249 72.9907 110.254C72.2898 111.569 71.3341 113.698 70.8881 114.95C70.4421 116.203 69.3589 118.269 68.5306 119.521L66.9377 121.775L67.0014 116.954C67.0651 112.571 66.874 111.882 64.7077 108.063C59.9927 99.8605 60.821 97.0429 69.3589 92.3468C74.711 89.4666 77.3871 87.2125 78.7888 84.4575C79.3622 83.3931 79.4897 79.8241 79.1711 71.3086L78.7888 59.5998L82.2932 55.9682C86.1161 51.9609 88.3461 51.3348 89.047 54.215C89.4293 55.9056 90.9585 56.7822 90.9585 55.3421C90.9585 54.8412 90.385 53.7141 89.6204 52.7749C87.709 50.333 84.9692 50.5834 82.2932 53.401C81.0826 54.5907 80.1268 55.2795 80.1268 54.9038C80.1268 54.4655 81.0826 53.2132 82.2932 52.0235C84.9692 49.3938 87.709 49.1433 90.0027 51.46C91.3408 52.7123 91.5956 53.5889 91.5956 56.7196C91.5956 60.0381 91.277 60.9147 89.2381 63.9202C87.0718 67.1135 85.9887 68.0527 83.0577 68.9293C82.102 69.2423 81.9746 69.4928 82.548 70.0563C83.5675 71.0581 87.3267 69.2423 88.7921 67.1135L89.8753 65.4855L90.7036 66.9256C91.1496 67.7396 91.7868 68.9293 92.1691 69.6806C92.4876 70.3694 93.9531 72.06 95.3548 73.3749C97.6486 75.5037 97.9672 76.1925 97.9672 78.5092C97.9672 82.1408 100.197 90.218 102.3 93.9122C104.084 97.1055 107.015 100.111 115.68 107.499C118.547 109.941 120.905 112.258 120.905 112.634C120.905 113.51 111.284 122.527 110.328 122.527C109.882 122.527 109.436 122.777 109.309 123.028C108.544 124.906 93.0611 132.169 87.6453 133.234C76.8136 135.3 71.0792 135.676 63.5608 134.674C59.5467 134.173 54.6406 133.359 52.6017 132.858C44.3187 130.729 32.8499 124.343 25.204 117.58C17.367 110.63 9.14769 97.356 6.28049 86.8994C2.07526 71.8095 3.54072 55.4047 10.2946 41.5044C13.8626 34.116 17.2396 29.3573 22.9102 23.6595C34.379 12.2011 46.4213 6.5659 64.8351 3.93611C68.5943 3.4352 74.4561 3.62304 80.1268 4.49963ZM87.4541 14.5805C89.5567 15.3318 91.7231 16.7719 93.8894 18.9634C95.6734 20.7792 98.0309 22.6576 99.0503 23.1586C103.574 25.4753 106.887 34.0534 106.887 43.5707C106.887 48.3919 105.103 56.0934 103.192 59.2867C102.491 60.4764 101.28 63.4193 100.516 65.8612C98.222 73.1244 98.1583 73.187 96.6929 72.4356C95.1 71.6217 92.4876 67.7396 91.9142 65.3603C91.5956 64.3585 91.8505 62.6679 92.4876 61.1652C93.762 58.0345 93.8257 53.088 92.5514 51.3974C91.2133 49.4564 87.5178 47.891 85.5426 48.3919C83.0577 49.0181 79.6808 52.5871 78.8525 55.4673C78.0879 58.2849 77.4508 58.9111 75.7304 58.3475C74.9021 58.0971 74.3924 57.1579 74.0738 55.029C73.373 50.0825 71.9712 48.0789 67.5749 45.3239C64.5802 43.5081 63.6245 42.5688 63.8794 41.8175C67.0651 33.7403 65.1537 30.6096 56.8706 30.547C53.1114 30.4844 45.9753 32.0497 44.0001 33.302C41.8975 34.6795 40.9418 34.4917 38.4568 32.1123C36.4817 30.2965 36.1631 29.6078 36.1631 27.2285C36.1631 23.0959 39.986 18.3373 45.593 15.5197C46.7399 14.8935 47.1859 14.9561 48.0142 15.7701C49.3522 17.085 52.092 16.9598 60.5024 15.2066C70.0598 13.1403 71.1429 13.0151 78.2154 13.2656C81.9109 13.3908 85.4789 13.8917 87.4541 14.5805ZM61.9042 32.9263C63.9431 33.7403 64.1342 34.93 62.9873 39.8138C62.0316 43.6333 62.0316 43.8837 63.1785 44.5099C70.1235 48.5798 72.481 51.3974 72.481 55.7804C72.481 58.7858 73.0544 59.9129 74.6473 59.9755C75.7942 59.9755 75.7304 60.1007 74.265 60.6642C72.927 61.1025 72.4172 61.7913 72.1624 63.5445C71.0155 70.6825 69.2315 73.5001 62.7325 78.3214C58.8458 81.139 56.8069 81.2016 54.2583 78.6344C51.5185 75.8168 49.1611 74.815 43.809 74.3141C40.0497 73.9384 39.6674 73.8132 42.0249 73.7505C45.2107 73.6879 46.7399 72.3104 45.9753 70.3068C45.5293 69.2423 43.1718 68.9293 43.1718 69.9311C43.1718 70.2442 43.4904 70.5572 43.8727 70.5572C44.255 70.5572 44.4461 70.8703 44.3187 71.3086C43.9364 72.3104 38.3931 72.6235 36.8002 71.8095C35.0162 70.8703 35.1436 69.9937 38.3931 63.6697C39.986 60.6016 41.2603 57.5336 41.2603 56.8448C41.2603 56.2187 40.6869 54.3402 39.9223 52.7123C38.648 49.8947 38.648 49.6442 39.6037 45.3239C41.8338 35.4935 41.9612 35.3056 48.5876 33.2394C51.646 32.3002 59.6741 32.1123 61.9042 32.9263ZM77.1959 64.4211C77.3871 65.9238 77.7056 70.6825 77.9605 75.0028L78.3428 82.8295L76.495 85.021C75.5393 86.2107 74.1376 87.6508 73.4367 88.2769C71.3978 89.9675 61.0122 94.7888 57.5078 95.6654C55.7875 96.0411 53.5574 96.7924 52.6017 97.2307C51.646 97.7316 49.2885 98.1073 47.3133 98.1073C44.3187 98.1073 43.4904 97.8569 42.0886 96.4794C40.4957 94.914 40.4957 94.6636 40.878 90.0928C41.1329 87.463 41.5152 85.1463 41.7063 84.9584C41.8975 84.7706 42.4709 85.2715 42.9807 86.0229C44.8921 88.7779 50.1805 87.2751 50.1805 83.9566C50.1805 82.0156 48.6513 80.7007 46.039 80.2624C38.8391 79.1979 39.3489 79.3858 39.3489 77.3195V75.3785L43.5541 75.8168C48.5239 76.3177 49.5434 76.756 53.2389 80.0745C56.4246 82.9548 57.8901 82.9548 62.2865 80.2624C68.9766 76.1299 72.7358 71.1834 73.5004 65.736C73.8827 62.6679 74.2013 62.2296 76.4313 61.8539C76.6862 61.8539 77.0048 62.981 77.1959 64.4211ZM46.5487 81.7651C48.0779 82.3912 48.9062 83.9566 48.4602 85.3967C48.0142 86.7116 45.4018 86.3359 43.8727 84.708C43.0444 83.8314 42.0249 83.3305 41.5152 83.5183C40.9418 83.7061 40.6232 83.3931 40.6232 82.5165C40.6232 81.452 41.0055 81.2016 42.7895 81.2016C44.0001 81.2016 45.7204 81.452 46.5487 81.7651Z" fill="black"/>
<path d="M43.3629 50.2077C42.5983 50.7086 41.5789 50.9591 41.0054 50.7713C40.432 50.5834 39.986 50.7086 39.986 51.0217C39.986 52.2114 41.0054 52.3366 43.8726 51.5226C47.1859 50.5834 50.1805 50.8339 53.8123 52.3992C55.5326 53.1506 56.6795 53.3384 56.9343 52.9627C57.4441 52.1488 57.3803 52.0861 53.7486 50.5834C50.1805 49.0181 45.2744 48.8928 43.3629 50.2077Z" fill="black"/>
</g>
<defs>
<clipPath id="clip0_5_5">
<rect width="141" height="137" fill="white"/>
</clipPath>
</defs>
</svg>
