<svg width="142" height="137" viewBox="0 0 142 137" fill="none" xmlns="http://www.w3.org/2000/svg">
<g clip-path="url(#clip0_5_31)">
<rect width="142" height="137" fill="white"/>
<g clip-path="url(#clip1_5_31)">
<path d="M66.1234 0.775535C61.3787 1.07109 54.3494 2.16887 53.0753 2.8022C52.636 3.01331 50.8347 3.60442 49.0335 4.11109C40.3347 6.6022 30.2301 12.5978 22.3222 19.9022C19.0272 22.9422 12.569 30.5422 12.569 31.3866C12.569 31.5555 12.3054 32.02 11.954 32.3578C10.8996 33.54 7.25313 40.2955 6.11087 43.2511C-1.88494 63.7711 -0.0397535 85.0933 11.3389 103.207C21.9707 120.264 40.1151 131.749 61.1151 134.789C66.2113 135.507 74.4707 135.591 79.7866 135C83.7845 134.536 91.8243 132.762 94.1966 131.791L95.6464 131.242L91.5167 127.316C80.9728 117.309 75.7448 106.247 75.0858 92.5666C74.7782 85.7689 75.9644 76.86 77.9414 71.0333L78.6883 68.9222L81.3243 68.6266C89.5397 67.6555 94.3284 63.7289 91.8243 60.0555C90.5063 58.1555 87.1674 57.86 84.136 59.4222C82.4665 60.3089 79.7866 63.18 78.8201 65.1644C77.7657 67.36 77.59 67.36 72.318 66.1778C67.2657 64.9955 64.5858 64.0244 61.2029 61.9978C57.6004 59.8866 56.5021 59 53.295 55.8333C47.364 49.9222 44.0251 42.8711 43.6297 35.44C43.5418 33.7933 43.3661 32.2733 43.2343 32.1466C42.795 31.7244 39.3243 35.0178 37.6548 37.4244C36.7761 38.6911 35.8975 39.7466 35.6339 39.7466C34.9749 39.7889 34.3598 36.9178 34.7113 35.2289C35.1067 33.2444 37.4351 29.9089 39.2803 28.7266C40.0711 28.22 41.6527 27.46 42.795 27.08C43.9372 26.6578 46.1339 25.3911 47.6715 24.2933C57.4247 17.1578 71.2636 15.2155 83.0376 19.3533C97.1402 24.2933 107.245 39.24 108.826 57.5222C109.354 63.7289 109.134 68.2466 107.816 77.3666C106.19 88.8089 107.157 97.4222 110.979 104.853C112.956 108.738 115.109 110.849 118.228 111.989C122.358 113.551 125.872 111.524 130.354 105.022C142.787 87.0778 145.203 61.5755 136.328 42.1111C132.287 33.2022 127.893 27.0378 120.688 20.1555C118.14 17.7066 114.757 14.8355 113.176 13.78C110.54 11.9644 103.686 7.91109 103.247 7.91109C103.159 7.91109 101.577 7.23554 99.7322 6.39109C89.8473 1.95776 77.9853 -0.0266874 66.1234 0.775535ZM84.0042 3.51998C90.4184 4.7022 95.6464 6.43331 101.533 9.2622C115.812 16.1866 125.741 25.7289 132.726 39.3666C136.065 45.8266 137.207 49.2466 138.657 56.6778C140.458 66.1778 140.151 74.8333 137.69 83.9111C136.944 86.5711 136.197 89.5267 135.933 90.4555C135.45 92.3978 132.506 98.2244 129.519 103.08C126.707 107.64 124.423 109.878 122.006 110.511C120.293 110.933 119.854 110.891 118.228 110.089C113.615 107.809 110.188 100.673 109.178 91.3C108.738 86.8244 108.826 84.7978 110.013 76.1C110.891 69.3866 110.979 55.7066 110.188 52.0333C108.211 43.2933 104.653 35.1866 100.347 29.6555C97.4477 26.0244 92.2636 21.7178 88.3096 19.6489C86.6402 18.8044 82.9937 17.4955 80.2259 16.7778C75.4812 15.5111 74.8222 15.4689 68.9351 15.5955C64.7176 15.68 62.5209 15.8911 62.1255 16.2711C61.8619 16.5244 61.2029 16.7778 60.7197 16.7778C59.5774 16.7778 52.5042 19.1422 52.1527 19.6066C52.0209 19.8178 50.7908 20.5778 49.4289 21.2955C48.0669 22.0555 46.3975 23.1111 45.7824 23.66C45.1674 24.2511 43.7615 24.9266 42.7071 25.2222C40.3787 25.8133 39.4561 26.4466 36.6443 29.1066C34.0084 31.64 33.1736 33.2022 32.91 36.2422C32.6904 38.3533 32.8222 38.9444 33.8326 40.6333L35.0188 42.5755L34.3598 45.2355C33.4812 48.4444 33.4812 51.1889 34.3159 54.7778C35.6778 60.7311 35.1506 62.7155 30.6255 68.6689C29.1757 70.6111 27.9456 72.6378 27.9456 73.1444C27.9456 74.2422 28.9561 75.2133 31.5042 76.4378C33.1736 77.24 33.4372 77.5355 33.4372 78.6333C33.3933 79.3089 33.2615 80.3222 33.0858 80.8289C32.8222 81.5044 32.9979 82.0111 33.613 82.6022C34.1402 83.1089 34.5356 84.0378 34.5356 84.7978C34.5356 85.7689 34.931 86.4444 36.0732 87.4155C37.4791 88.5978 37.6109 88.8933 37.6109 91.1733C37.6109 94.5511 38.4895 96.4511 40.4226 97.2111C42.5314 98.0555 43.1025 98.0133 49.4728 96.62C54.7008 95.48 55.0084 95.4378 56.2824 96.1133C58.0397 97.0422 60.1485 100.167 61.3347 103.544C62.1255 105.909 62.2573 107.049 62.1255 111.482C61.9498 117.604 61.2029 119.589 57.6443 122.84C54.7008 125.542 51.7134 126.64 46.5732 126.893C41.5209 127.104 39.6318 126.556 34.4916 123.262C28.5167 119.504 26.2761 117.689 21.9707 113.34C4.70502 95.9866 -1.31381 70.4 6.46234 47.6C12.8766 28.8533 27.4623 13.9489 46.4853 6.68665C51.0544 4.95554 59.9728 2.88665 64.8494 2.46442C70.6925 1.91553 77.7657 2.29553 84.0042 3.51998ZM41.9602 38.1C43.1904 44.8133 45.387 49.5 49.9121 54.9466C55.6674 61.9133 64.2782 66.7266 73.7238 68.2889L76.6234 68.7955L75.569 72.4266C74.9979 74.4955 74.2071 79.2666 73.7678 83.4044C73.0648 90.2867 73.0648 91.0889 73.7238 97C75.1297 108.991 79.7427 118.28 88.5732 127.062L91.9121 130.398L90.0669 131.2C85.8054 133.058 72.4059 134.198 64.4979 133.353C59.6653 132.847 53.7782 131.833 52.3284 131.242C50.4393 130.482 47.8912 129.553 46.8368 129.258C45.9582 129.004 46.3975 128.836 48.9895 128.413C61.0711 126.429 66.7385 116.591 63.2678 103.587C62.3891 100.293 61.2029 98.1822 59.0941 95.9866L57.3807 94.1711L59.2699 93.6222C60.2803 93.3266 61.8619 92.7355 62.7845 92.2711C64.8933 91.2578 68.364 88.2178 68.364 87.4578C68.364 86.6978 67.2218 86.6978 66.7385 87.4155C65.728 89.02 61.5544 91.5111 58.1715 92.5666C56.1506 93.1578 54.1297 93.8333 53.6464 94.0444C53.1632 94.2555 51.4937 94.72 49.9121 95.0578C40.9498 96.9155 39.3682 96.24 39.3682 90.54C39.3682 88.1333 39.2364 87.8378 37.7866 86.4022C35.9854 84.6289 36.1171 83.7 38.0941 84.1222C39.4561 84.4178 41.1255 84.08 41.1255 83.4889C41.1255 83.2778 39.9833 82.8978 38.6213 82.6022C35.1946 81.9266 34.7552 81.4622 35.2824 79.3511C35.8536 77.1555 35.1506 75.8466 32.91 75.0866C31.1966 74.4955 29.7029 73.4822 29.7029 72.8911C29.7029 72.7222 30.8013 71.0755 32.1632 69.26C36.864 63.0533 37.5669 60.2244 36.0732 54.1444C34.7552 48.9933 35.8536 43.5044 39.2803 38.0155C40.159 36.58 41.0377 35.3555 41.1695 35.3555C41.3452 35.3555 41.6966 36.58 41.9602 38.1ZM88.7489 60.2666C90.1109 60.7311 90.8138 61.9555 90.4623 63.18C90.1987 64.1933 87.1234 65.8822 84.6192 66.3889C83.7845 66.5578 82.8619 66.8533 82.5983 67.0644C82.2908 67.3178 81.6318 67.2333 80.9289 66.8955L79.7866 66.3044L81.5879 63.8555C82.818 62.2511 84.0042 61.1955 85.2343 60.6466C87.3431 59.7178 87.2992 59.7178 88.7489 60.2666ZM79.7866 67.1911C79.7866 67.2755 79.2594 67.6555 78.6004 68.0355L77.3703 68.7533L78.4247 67.9089C79.4351 67.0222 79.7866 66.8533 79.7866 67.1911ZM45.0795 128.667C44.5523 129.004 44.5523 129.089 45.0356 129.089C45.387 129.089 45.5628 129.173 45.431 129.3C45.1234 129.638 43.7615 129.089 43.7615 128.624C43.7615 128.413 44.2008 128.244 44.772 128.244C45.5628 128.244 45.6067 128.329 45.0795 128.667Z" fill="black"/>
<path d="M115.812 20.3244C115.812 20.4089 116.163 20.7467 116.603 21.0422C117.261 21.5911 117.305 21.5489 116.734 20.8733C116.163 20.1978 115.812 19.9867 115.812 20.3244Z" fill="black"/>
<path d="M34.0962 121.024C34.0962 121.278 34.272 121.573 34.5356 121.7C34.7992 121.827 34.8431 121.658 34.7113 121.32C34.4038 120.56 34.0962 120.433 34.0962 121.024Z" fill="black"/>
<path d="M9.49372 104.769C9.49372 104.853 9.84519 105.191 10.2845 105.487C10.9435 106.036 10.9874 105.993 10.4163 105.318C9.84519 104.642 9.49372 104.431 9.49372 104.769Z" fill="black"/>
</g>
</g>
<defs>
<clipPath id="clip0_5_31">
<rect width="142" height="137" fill="white"/>
</clipPath>
<clipPath id="clip1_5_31">
<rect width="242" height="226" fill="white" transform="translate(-66 -36)"/>
</clipPath>
</defs>
</svg>
