<svg width="141" height="137" viewBox="0 0 141 137" fill="none" xmlns="http://www.w3.org/2000/svg">
<g clip-path="url(#clip0_5_19)">
<rect width="141" height="137" fill="white"/>
<g clip-path="url(#clip1_5_19)">
<path d="M66.498 1.39296C66.3271 1.55646 64.789 1.82895 63.0799 1.93796C57.3262 2.48296 50.6609 3.89996 47.9834 5.26245C47.0719 5.69846 45.8755 6.07996 45.3628 6.07996C44.7932 6.07996 44.3374 6.29796 44.3374 6.62495C44.3374 6.89746 43.8817 7.16995 43.3689 7.16995C42.3435 7.16995 41.489 7.55145 36.9315 10.113C35.5073 10.876 33.9122 11.6935 33.3995 11.857C32.8298 12.075 32.3741 12.402 32.3741 12.62C32.3741 12.838 31.8044 13.2195 31.0638 13.5465C26.3355 15.6175 13.8024 28.425 9.87163 35.2375C9.52982 35.837 8.84621 36.927 8.44743 37.69C7.08019 40.0335 3.88997 47.718 3.88997 48.699C3.88997 49.1895 3.6621 49.7345 3.37726 49.898C3.09242 50.0615 2.69364 51.751 2.46576 53.604C2.23789 55.5115 1.78215 57.3645 1.49731 57.746C0.642782 58.727 0.585814 79.1645 1.44034 80.7995C2.18092 82.2165 3.03545 86.086 2.80757 87.1215C2.75061 87.4485 2.97848 87.8845 3.32029 88.1025C3.60513 88.266 3.88997 88.9745 3.88997 89.683C3.88997 90.337 4.06087 91.1 4.28875 91.318C4.57359 91.536 4.74449 91.9175 4.74449 92.081C4.80146 92.299 5.20024 93.3345 5.71295 94.37C6.22567 95.4055 7.30806 97.64 8.10562 99.275C9.64376 102.381 10.7262 104.234 11.3528 104.725C11.5237 104.888 12.1504 105.869 12.72 106.905C15.0557 111.374 24.2276 120.312 30.665 124.399C38.4697 129.413 48.667 133.228 58.6364 135.027C65.9284 136.28 81.4807 135.953 82.9619 134.482C83.8734 133.555 83.8164 133.501 81.6516 133.882C77.379 134.536 66.9538 134.809 65.7575 134.264C65.0738 133.991 62.1115 133.337 59.1491 132.847C47.6985 131.048 37.1594 126.797 28.8421 120.693C24.9682 117.859 18.132 111.319 16.0812 108.431L14.6 106.414L17.8472 102.981C22.6325 97.9125 26.1076 90.446 26.1076 85.1595C26.1076 84.233 26.3354 83.47 26.5633 83.47C26.8482 83.47 28.2154 82.707 29.6966 81.7805C32.7159 79.873 36.5897 74.6955 37.1594 71.807L37.5582 69.845L38.9254 71.4255C40.8623 73.6055 43.4259 74.532 45.2489 73.7145C47.1858 72.897 46.6731 71.698 44.4513 71.916C41.1472 72.243 36.3619 66.575 35.4504 61.234C35.0516 58.6725 36.4758 55.239 38.2988 54.585C39.9509 54.04 42.5714 54.8575 44.4513 56.6015C47.0149 58.945 46.3883 59.926 43.7677 57.637C41.0902 55.2935 38.0709 54.8575 38.0709 56.8195C38.0709 57.8005 38.2988 57.9095 39.609 57.5825C40.9193 57.31 41.489 57.637 44.2804 60.471L47.4707 63.632L50.6609 63.414L53.8511 63.196L54.1359 59.2175C54.4777 54.258 55.6171 52.2415 59.7758 49.5165C63.4218 47.0095 63.4787 46.628 60.8012 41.069C59.0922 37.472 58.9782 37.036 59.8328 36.273C61.9406 34.2565 72.3088 34.856 77.322 37.3085C80.0565 38.6165 80.3413 39.1615 82.5061 46.846C83.5885 50.8245 83.5885 50.9335 82.5061 53.822C81.2528 57.3645 81.3667 57.8005 85.5254 65.4305C88.089 70.2265 88.2599 70.6625 87.3484 71.3165C86.6648 71.7525 85.9812 71.807 85.3545 71.48C84.7279 71.153 83.7594 71.2075 82.62 71.589C80.6831 72.2975 79.3729 71.698 80.968 70.8805C82.2782 70.172 82.2213 68.755 80.854 68.755C78.6892 68.755 77.5499 71.589 79.145 73.0605C80.2843 74.0415 80.2843 74.096 77.8347 74.423C75.3281 74.8045 73.0494 76.3305 71.3403 78.8375C70.8276 79.6005 69.9731 80.2 69.4604 80.2C67.8653 80.2 58.0098 73.7145 56.8704 71.916C56.3007 70.9895 55.6171 69.2455 55.4462 68.101C54.9905 65.6485 53.9081 64.94 50.376 64.94H47.7555L47.6985 72.4065C47.6985 76.5485 47.5846 80.309 47.4707 80.854C47.3567 81.3445 47.5276 82.8705 47.8694 84.233C48.5531 87.4485 51.8572 90.2825 58.2946 93.2255C61.0291 94.479 63.3648 95.896 63.7066 96.6045C64.732 98.3485 63.9914 101.945 61.9406 105.76C59.8328 109.63 59.2061 113.663 60.2885 116.769C60.6873 117.914 60.9152 119.004 60.7443 119.167C60.2885 119.658 54.8196 111.374 52.8257 107.177C51.0597 103.362 48.667 96.768 45.7616 87.721C44.2804 82.925 43.5399 81.835 42.5714 82.7615C42.2296 83.0885 42.7993 85.5955 44.0526 89.5195C50.6609 109.466 54.079 115.897 62.0545 122.873C64.2763 124.89 66.3271 126.525 66.612 126.525C67.5804 126.525 67.1247 124.835 65.7575 123.091C61.3709 117.587 60.8582 112.518 64.0484 106.087C65.6435 102.981 66.1562 101.237 66.1562 99.1115V96.223L70.144 97.4765C74.7584 98.948 79.4868 99.5475 81.5946 99.057C82.4491 98.839 83.8734 97.6945 84.7848 96.441C86.7787 93.8795 87.0066 91.209 85.6394 87.0125C85.1266 85.214 85.0127 84.0695 85.4115 83.4155C85.6963 82.8705 85.8103 81.7805 85.5824 81.0175C85.3545 80.0365 85.5254 79.2735 86.209 78.565C87.0066 77.693 87.0636 77.257 86.5509 75.7855C86.209 74.8045 85.9812 73.987 86.0381 73.9325C86.1521 73.8235 87.0636 73.3875 88.089 72.897C90.6526 71.6435 90.4817 70.1175 87.0636 64.395C83.7024 58.727 83.0188 56.3835 84.557 55.893C88.2029 54.803 92.7034 52.3505 95.0391 50.116C98.0584 47.282 101.306 41.6685 101.306 39.216C101.306 36.818 102.16 37.4175 103.584 40.7965C105.35 45.0475 105.749 52.1325 104.496 56.1655C102.616 62.1605 103.47 66.0845 107.857 72.243C108.655 73.3875 109.281 74.3685 109.167 74.423C109.053 74.532 107.8 74.968 106.262 75.513C103.413 76.5485 102.901 77.4205 103.129 80.4725C103.3 81.9985 103.129 82.1075 100.907 82.38C99.5396 82.598 98.3433 82.8705 98.1154 83.034C97.3748 83.797 98.6281 84.56 100.508 84.56C101.59 84.56 102.445 84.7235 102.445 84.887C102.445 85.0505 101.704 85.9225 100.736 86.74C99.2548 88.048 99.0269 88.6475 99.0269 91.0455C99.0269 95.7325 96.6912 96.9315 90.7095 95.1875L87.9181 94.37L86.6078 95.8415C85.1266 97.5855 83.0188 101.237 83.1897 101.836C83.2467 102.109 82.9619 103.362 82.5631 104.725C80.968 109.957 83.1328 118.513 86.8927 122.274C89.2853 124.672 95.6088 128.051 98.913 128.759C101.761 129.304 102.16 129.25 104.838 127.942C112.699 124.018 122.042 116.442 127.34 109.63C132.239 103.362 137.822 91.645 139.645 83.7425C143.462 67.447 141.297 52.1325 133.037 36.709C131.385 33.657 129.505 30.4415 128.821 29.624C128.138 28.8065 126.372 26.7355 124.947 25.046C123.523 23.302 120.504 20.4135 118.225 18.5605C113.212 14.5275 104.211 8.80495 102.901 8.80495C102.331 8.80495 101.875 8.53246 101.875 8.25996C101.875 7.93295 101.704 7.76945 101.477 7.82396C101.192 7.87846 99.8244 7.38795 98.3433 6.73396C96.8621 6.07996 95.1531 5.53496 94.5264 5.53496C93.8428 5.53496 93.3301 5.31696 93.3301 5.04445C93.3301 4.77196 92.0768 4.39046 90.4817 4.17245C88.9435 3.95445 87.5193 3.62746 87.3484 3.35495C87.1775 3.13696 85.3545 2.75546 83.2467 2.53746C81.0819 2.31946 78.7462 2.04695 77.9487 1.93796C73.9039 1.44745 66.7829 1.12045 66.498 1.39296ZM78.8032 3.40945C84.8418 4.11795 93.7289 6.57045 99.4257 9.07745C106.661 12.293 116.516 18.9965 121.928 24.4465C124.207 26.7355 130.302 34.747 130.815 36.055C130.929 36.491 132.068 38.9435 133.208 41.505C134.404 44.0665 135.885 47.8815 136.569 50.007C137.993 54.6395 139.474 63.9045 139.474 68.4825C139.474 73.224 137.993 81.944 136.227 87.394C134.917 91.5905 134.575 92.19 133.436 92.19C129.505 92.19 122.27 87.0125 119.82 82.38C116.573 76.2215 116.06 71.589 117.542 60.3075C118.624 52.1325 118.624 48.699 117.542 43.358C115.548 33.3845 109.11 25.7 100.166 22.7025C98.7421 22.212 95.9506 21.0675 93.8998 20.1955C89.798 18.288 82.0504 16.2715 80.1134 16.544C78.4044 16.762 78.1765 17.961 79.7716 18.288C86.6648 19.5415 90.7095 20.6315 93.3301 21.994C95.0391 22.866 97.8306 24.065 99.4257 24.61C107.287 27.2805 112.87 33.6025 115.206 42.6495C116.345 47.064 116.345 52.405 115.263 60.8525C114.123 69.3545 114.18 72.5155 115.491 77.366C116.801 82.1075 119.535 86.6855 122.669 89.3015C125.061 91.318 131.1 94.37 132.752 94.37C133.55 94.37 133.436 94.915 131.955 98.0215C127.055 108.485 117.2 118.622 105.521 125.217L101.135 127.669L97.7166 126.47C93.501 124.944 88.3169 121.293 86.266 118.35C83.3037 114.099 82.9049 106.305 85.4115 100.964C87.3484 96.7135 87.5763 96.6045 92.0768 97.531C95.4379 98.2395 96.2355 98.2395 97.6597 97.5855C99.7105 96.659 101.306 93.716 101.306 90.882C101.306 89.3015 101.647 88.5385 102.787 87.721C103.698 87.0125 104.154 86.195 104.04 85.3775C103.926 84.669 104.325 83.6335 104.952 82.9795C105.806 82.1075 105.863 81.617 105.407 80.2545C104.724 78.456 105.122 77.911 107.572 77.2025C109.452 76.6575 110.99 75.3495 110.99 74.205C110.99 73.7145 110.193 72.134 109.224 70.608C106.945 67.2835 105.293 63.741 105.635 63.196C105.806 62.978 106.547 62.76 107.23 62.76C108.655 62.76 110.079 61.561 109.452 60.907C109.224 60.7435 108.199 60.7435 107.173 60.907C106.148 61.0705 105.293 61.0705 105.293 60.8525C105.293 60.6345 105.863 58.727 106.49 56.656C108.598 50.0615 107.23 41.7775 102.958 35.401C101.932 33.9295 100.85 32.8395 100.508 32.9485C100.166 33.0575 99.7105 34.8015 99.4826 36.818C98.799 43.576 94.4694 49.353 87.7472 52.623C86.1521 53.386 84.7279 54.04 84.6709 54.04C84.557 54.04 84.5 52.2415 84.5 50.0615C84.5 47.4455 84.0443 44.8295 83.1328 42.159L81.7655 38.1805L83.0188 36.927C83.7024 36.2185 84.6139 34.529 85.0697 33.112C86.4939 28.5885 84.1012 22.539 79.6007 19.487C74.6445 16.0535 71.4543 15.1815 72.0809 17.4705C72.5367 19.1055 70.9985 19.16 64.789 17.743C56.9843 15.9445 47.6985 15.5085 42.3435 16.5985C40.1787 17.089 36.4188 18.288 34.0262 19.3235C30.0954 21.0675 28.956 21.9395 24.2846 26.6265C23.7719 27.1715 22.2337 28.4795 20.8665 29.5695C16.1951 33.2755 13.8024 40.2515 14.3152 48.59C14.7139 54.7485 16.1381 59.7625 19.8411 68.21C23.3731 76.3305 23.9998 78.5105 23.9998 83.47C24.0567 90.337 20.5817 97.967 15.1127 102.981L13.1758 104.779L11.011 101.182C8.04865 96.0595 5.76992 90.6095 4.06087 84.2875C2.69364 79.3825 2.52273 77.8565 2.52273 69.0275C2.52273 57.855 3.49119 52.7865 7.13716 43.9575C13.1758 29.2425 25.6518 16.653 41.2042 9.45895C52.8826 4.00896 65.9853 1.88345 78.8032 3.40945ZM62.1685 19.2145C69.2325 20.5225 73.1633 20.577 73.8469 19.378C74.3027 18.5605 74.5306 18.5605 76.0117 19.487C83.3037 23.7925 85.9812 30.932 82.0504 35.4555L81.0819 36.6L77.4929 35.2375C71.3403 32.785 61.143 32.458 58.6364 34.638C57.8389 35.292 57.0983 35.2375 52.5978 33.766C43.8247 30.932 35.5073 31.0955 28.5572 34.2565C25.1961 35.7825 19.8411 40.088 19.8411 41.2325C19.8411 42.8675 21.1513 42.595 23.2022 40.524C25.8797 37.908 29.6966 35.6735 33.3995 34.638C38.8685 33.003 48.1543 33.8205 54.7056 36.5455C56.9274 37.4175 57.3262 37.908 58.7504 41.287C61.143 46.846 61.143 46.519 58.3516 48.154C56.9274 48.917 55.1614 50.552 54.3638 51.6965C52.8826 53.822 51.4015 59.49 51.9711 60.907C52.199 61.452 51.8002 61.67 50.6039 61.67C49.1797 61.67 48.8379 61.3975 48.3252 59.599C47.6416 56.983 44.4513 53.822 41.7738 52.95C39.2103 52.1325 36.9885 52.8955 34.8807 55.2935C33.5704 56.765 33.4565 57.31 33.6274 60.253C33.7983 62.106 34.368 64.722 34.9377 66.139C35.9631 68.646 35.9631 68.8095 34.9946 71.8615C34.1401 74.314 33.2286 75.6765 30.6081 78.129C28.7281 79.873 27.0191 81.29 26.7342 81.29C26.4494 81.29 25.9367 79.873 25.5949 78.0745C25.2531 76.3305 23.544 71.5345 21.778 67.5015C20.0689 63.414 18.189 58.182 17.5623 55.893C16.1951 50.77 16.0242 42.922 17.2775 38.9435C18.4738 35.1285 21.4362 31.0955 23.9998 29.7875C25.1391 29.188 26.2785 28.2615 26.4494 27.771C27.3039 25.1005 33.0007 21.231 38.2988 19.6505C45.8186 17.416 51.6863 17.307 62.1685 19.2145ZM47.4707 61.016C47.0149 61.452 46.0465 60.471 46.3883 59.926C46.6161 59.599 46.901 59.6535 47.2428 60.0895C47.4707 60.471 47.5846 60.907 47.4707 61.016ZM52.5978 67.011C52.9396 67.229 53.6232 68.755 54.1929 70.39C54.9905 73.006 55.6171 73.769 58.9782 76.276C62.4533 78.9465 68.6059 82.38 69.9161 82.38C70.201 82.38 71.7961 81.072 73.5051 79.437C75.8978 77.0935 77.322 76.276 79.8856 75.5675C83.5315 74.532 84.7848 74.75 84.7848 76.385C84.7848 77.257 84.3861 77.475 82.9619 77.475C80.854 77.475 76.8663 79.0555 75.8978 80.2545C75.556 80.6905 75.1002 81.726 74.8724 82.5435C74.5875 83.797 74.8154 84.3965 76.1826 85.65C78.2335 87.6665 80.911 87.83 82.1643 86.086C83.3037 84.56 83.5315 84.8325 84.2152 88.4295C85.0127 92.3535 84.5 95.2965 82.734 96.3865C79.7147 98.2395 68.9477 96.0595 59.491 91.5905C49.8064 87.0125 49.2936 86.1405 49.8064 74.75C50.1482 67.774 50.3191 66.575 51.1166 66.575C51.6293 66.575 52.313 66.793 52.5978 67.011ZM84.2152 81.29C84.2152 82.38 83.8734 83.0885 83.2467 83.3065C82.677 83.47 81.6516 84.124 80.968 84.7235C79.7716 85.759 79.6007 85.759 78.2335 84.887C76.4105 83.7425 76.4105 82.6525 78.2905 81.0175C79.3729 80.0365 80.4553 79.655 81.9934 79.655C84.1012 79.655 84.2152 79.764 84.2152 81.29Z" fill="black"/>
<path d="M69.5743 51.5875C67.8083 52.3505 66.555 53.277 66.555 53.7675C66.555 54.8575 67.2956 54.803 70.087 53.4405C72.5936 52.187 77.0372 51.86 80.1135 52.5685C81.5946 52.95 81.9364 52.8955 81.9364 52.187C81.9364 49.898 74.1888 49.5165 69.5743 51.5875Z" fill="black"/>
</g>
</g>
<defs>
<clipPath id="clip0_5_19">
<rect width="141" height="137" fill="white"/>
</clipPath>
<clipPath id="clip1_5_19">
<rect width="212" height="196" fill="white" transform="translate(-53 -37)"/>
</clipPath>
</defs>
</svg>
